Coordinates
version=1
nRows=4
nColumns=107
inDegrees=yes

Units are S.I. units (second, meters, Newtons, ...)
If the header above contains a line with 'inDegrees', this indicates whether rotational values are in degrees (yes) or radians (no).

endheader
time	sternoclavicular_r2	sternoclavicular_r3	unrotscap_r3	unrotscap_r2	acromioclavicular_r2	acromioclavicular_r3	acromioclavicular_r1	unrothum_r1	unrothum_r3	unrothum_r2	elv_angle	shoulder_elv	shoulder1_r2	shoulder_rot	elbow_flexion	pro_sup	deviation	flexion	proximal_distal_r1	proximal_distal_r3	cmc_flexion	cmc_abduction	mp_flexion	ip_flexion	mcp2_flexion	mcp2_abduction	pm2_flexion	md2_flexion	mcp3_flexion	mcp3_abduction	pm3_flexion	md3_flexion	mcp4_flexion	mcp4_abduction	pm4_flexion	md4_flexion	mcp5_flexion	mcp5_abduction	pm5_flexion	md5_flexion	bicpt_tx	bicpt_ty	bicpt_tz	bicpt2_tx	bicpt2_ty	bicpt2_tz	ptpt_tx	ptpt_ty	ptpt_tz	FCUpt_tx	FCUpt_ty	FCUpt_tz	EDCpt_tx	EDCpt_ty	EDCpt_tz	APLpt_tx	APLpt_ty	APLpt_tz	FPLpt_tx	FPLpt_ty	FPLpt_tz	FPLpt2_tx	FPLpt2_ty	FPLpt2_tz	PEC1pt2_tx	PEC1pt2_ty	PEC1pt2_tz	PEC1pt3_tx	PEC1pt3_ty	PEC1pt3_tz	PEC2pt2_tx	PEC2pt2_ty	PEC2pt2_tz	PEC2pt3_tx	PEC2pt3_ty	PEC2pt3_tz	PEC3pt2_tx	PEC3pt2_ty	PEC3pt2_tz	PEC3pt3_tx	PEC3pt3_ty	PEC3pt3_tz	DELT2pt2a_tx	DELT2pt2a_ty	DELT2pt2a_tz	DELT2pt2_tx	DELT2pt2_ty	DELT2pt2_tz	LAT1pt2_tx	LAT1pt2_ty	LAT1pt2_tz	LAT1pt3_tx	LAT1pt3_ty	LAT1pt3_tz	LAT2pt2_tx	LAT2pt2_ty	LAT2pt2_tz	LAT2pt3_tx	LAT2pt3_ty	LAT2pt3_tz	LAT3pt2_tx	LAT3pt2_ty	LAT3pt2_tz	LAT3pt3_tx	LAT3pt3_ty	LAT3pt3_tz
      1.16666667	     -0.32416897	      0.13730268	     -0.13730268	      0.32416897	     -0.06563762	      0.53046018	      0.23843820	     -0.23843820	     -0.53046018	      0.06563762	     98.89574913	     76.74988555	     -1.72605644	    -20.50444111	     28.15596804	     20.12772039	      0.01483940	     -0.95267640	      0.01995891	     -0.47633820	      1.49876757	      2.39415033	    -17.14639717	    -18.80295816	     12.47790190	     10.59281218	     19.58615215	    -21.98276927	     39.40528791	      6.37907900	     66.12299569	     40.68922523	     33.95227106	     -2.22288952	     67.10807511	     29.25608367	     16.27967547	    -11.08415932	    -13.78706511	      4.94393301	      0.00083131	     -0.03082710	     -0.00481980	      0.01608556	     -0.01784871	     -0.00931458	      0.00606279	     -0.06586166	     -0.00167140	      0.00584046	     -0.18385239	     -0.00009665	     -0.00241532	      0.00063280	      0.00018207	      0.00021466	      0.00008586	      0.00042931	      0.00027476	      0.00082428	      0.00046366	      0.00003134	     -0.00003622	     -0.00004347	      0.00251569	      0.00882624	      0.00614000	     -0.00822930	      0.01986971	     -0.01884638	      0.00251569	      0.00882624	      0.00614000	      0.00055431	      0.01841999	     -0.00967902	      0.00396994	      0.00490816	      0.01602118	      0.00000000	      0.00787865	      0.00000000	     -0.00720597	     -0.03330095	     -0.00649686	      0.01406565	     -0.00044748	     -0.00347530	     -0.00089542	      0.01500888	     -0.00614000	      0.00247305	      0.02166054	     -0.01790832	     -0.00601208	      0.01300485	     -0.00550041	     -0.01253583	      0.02745943	     -0.03074262	     -0.02353665	      0.01453985	     -0.00737652	     -0.01560582	      0.03172331	     -0.03841761
      1.20000000	     -0.32459591	      0.13748351	     -0.13748351	      0.32459591	     -0.06572407	      0.53115881	      0.23875223	     -0.23875223	     -0.53115881	      0.06572407	     98.77501322	     76.85096768	     -1.72394920	    -19.98831257	     28.21897427	     19.79204757	      0.01307536	     -0.96856906	      0.01760520	     -0.48428453	      3.44006536	      0.95424738	    -14.06839752	    -13.89762826	     14.43987768	     10.36431291	     19.70849878	    -21.49063098	     35.86989087	      6.24881336	     57.23883931	     34.87194684	     30.93540162	     -1.82124326	     57.55854238	     26.68392726	     14.46883299	    -10.51893743	    -11.83080030	      4.93007764	      0.00083340	     -0.03083433	     -0.00482097	      0.01606954	     -0.01786582	     -0.00934098	      0.00608759	     -0.06584562	     -0.00164436	      0.00580874	     -0.18385746	     -0.00008920	     -0.00237504	      0.00062122	      0.00018083	      0.00020535	      0.00008214	      0.00041069	      0.00026284	      0.00078853	      0.00044355	      0.00004244	     -0.00007943	     -0.00009531	      0.00251901	      0.00883787	      0.00614808	     -0.00824014	      0.01989588	     -0.01887120	      0.00251901	      0.00883787	      0.00614808	      0.00055504	      0.01844425	     -0.00969177	      0.00397375	      0.00491463	      0.01603038	      0.00000000	      0.00789956	      0.00000000	     -0.00721546	     -0.03334481	     -0.00651422	      0.01376952	     -0.00043158	     -0.00329412	     -0.00089660	      0.01502865	     -0.00614808	      0.00247631	      0.02168907	     -0.01793191	     -0.00602000	      0.01302198	     -0.00550766	     -0.01255234	      0.02749559	     -0.03078311	     -0.02356765	      0.01455900	     -0.00738624	     -0.01562638	      0.03176509	     -0.03846821
      1.23333333	     -0.32481931	      0.13757813	     -0.13757813	      0.32481931	     -0.06576930	      0.53152437	      0.23891655	     -0.23891655	     -0.53152437	      0.06576930	     98.73204233	     76.90385886	     -1.72319922	    -19.81630457	     28.18232388	     20.05008142	      0.00472377	     -0.98163437	      0.00639303	     -0.49081718	      6.69582915	     -1.95344586	    -12.19869589	    -12.29427320	     14.95491752	      9.96765253	     19.86638669	    -21.45427003	     30.44664680	      6.03663792	     49.43903665	     31.63845939	     25.63429774	     -1.13912785	     50.19757500	     24.29797530	     12.48776544	     -9.65793287	    -11.91557357	      4.97981473	      0.00083218	     -0.03083013	     -0.00482029	      0.01608188	     -0.01785587	     -0.00932070	      0.00606853	     -0.06585795	     -0.00166514	      0.00583312	     -0.18385356	     -0.00009494	     -0.00240600	      0.00063012	      0.00018179	      0.00019738	      0.00007895	      0.00039476	      0.00025265	      0.00075794	      0.00042634	      0.00003686	     -0.00014249	     -0.00017099	      0.00252074	      0.00884395	      0.00615231	     -0.00824581	      0.01990957	     -0.01888419	      0.00252074	      0.00884395	      0.00615231	      0.00055542	      0.01845694	     -0.00969844	      0.00397574	      0.00491801	      0.01603519	      0.00000000	      0.00791052	      0.00000000	     -0.00722042	     -0.03336776	     -0.00652331	      0.01367006	     -0.00042630	     -0.00323465	     -0.00089721	      0.01503899	     -0.00615231	      0.00247802	      0.02170400	     -0.01794425	     -0.00602414	      0.01303094	     -0.00551145	     -0.01256097	      0.02751451	     -0.03080429	     -0.02358387	      0.01456902	     -0.00739132	     -0.01563713	      0.03178696	     -0.03849469
      1.26666667	     -0.32458803	      0.13748017	     -0.13748017	      0.32458803	     -0.06572247	      0.53114590	      0.23874643	     -0.23874643	     -0.53114590	      0.06572247	     98.75957315	     76.84910018	     -1.72367972	    -20.08558627	     28.31981886	     20.87130165	      0.01573179	     -0.97913889	      0.02114770	     -0.48956944	      8.36224178	     -4.25403204	     -8.31629151	     -7.04999545	     15.90393199	      9.91556485	     19.86046776	    -21.13786375	     27.49341130	      5.47326010	     38.97079153	     26.14702861	     23.69847280	     -0.79293141	     37.71118627	     21.75501967	     10.62848674	     -9.14719250	     -9.39402421	      4.95701903	      0.00083673	     -0.03084588	     -0.00482283	      0.01612012	     -0.01789322	     -0.00925553	      0.00600785	     -0.06589718	     -0.00173130	      0.00591085	     -0.18384104	     -0.00011285	     -0.00250455	      0.00065858	      0.00018459	      0.00019892	      0.00007957	      0.00039784	      0.00025462	      0.00076385	      0.00042967	      0.00003466	     -0.00017021	     -0.00020425	      0.00251894	      0.00883765	      0.00614793	     -0.00823994	      0.01989539	     -0.01887074	      0.00251894	      0.00883765	      0.00614793	      0.00055502	      0.01844380	     -0.00969153	      0.00397368	      0.00491451	      0.01603021	      0.00000000	      0.00789918	      0.00000000	     -0.00721528	     -0.03334400	     -0.00651390	      0.01382560	     -0.00043457	     -0.00332795	     -0.00089657	      0.01502828	     -0.00614793	      0.00247625	      0.02168854	     -0.01793147	     -0.00601985	      0.01302166	     -0.00550752	     -0.01255203	      0.02749492	     -0.03078236	     -0.02356708	      0.01455865	     -0.00738606	     -0.01562600	      0.03176432	     -0.03846728
